<svg xmlns="http://www.w3.org/2000/svg" width="215" height="68" viewBox="0 0 215 68">
    <path fill="#FFF" d="M46.46 34.448c0 11.778-4.23 19.805-13.423 19.805-9.927 0-13.56-9.014-13.56-19.805 0-11.7 4.23-19.606 13.56-19.606 9.67 0 13.423 8.76 13.423 19.606m22.68 1.494c-1.842-15.692-.88-18.702-7.594-20.57C55.412 4.49 43.816.49 33.036.49 17.3.49 0 8.873 0 34.315 0 59.485 17.42 68 33.037 68c10.6 0 21.977-3.935 28.186-14.394 10.557-.005 8.852-9.648 7.917-17.664m7.207-7.96c1.444-9.49 6.658-13.505 12.7-13.505 7.267 0 11.38 4.38 12.353 13.505H76.347zm-.25 11.546h42.734v-2.922c0-6.3-.198-9.42-1.525-13.805.024-.016-10.946-8.283-10.946-8.3 1.107-1.59 2.912-3.917 4.19-5.437C105.185 3.946 98.06.49 89.174.49c-9.17 0-21.094 4.1-27.627 14.882 2.73 4.857 4.39 11.083 4.39 18.943 0 8.057-1.776 14.377-4.712 19.29C67.164 64.018 78.244 68 89.658 68c6.207 0 12.05-.804 17.098-2.778.02-2.053-.097-5.654.61-9.653.77-4.712 3.37-8.762 3.37-8.762-4.357 4.01-12.004 7.568-19.63 7.568-8.1 0-14.034-4.123-15.008-14.848"/>
    <path fill="#FFF083" d="M186.78 22.072h.19v18.652h-13.75l13.56-18.652zm17.194 43.414v-11.29H215V40.723h-11.026V1.22h-19.046l-29.705 40.4v12.575h31.746v11.29h17.004zm-43.035 0V52.112h-29.16c.334-2.922 6.775-7.036 15.23-12.335 12.53-7.81 13.493-14.17 13.493-20.677 0-11.82-8.378-19.1-23.196-19.1-12.432 0-20.27 5.735-26.367 13.982l12.275 8.86c3.785-5.212 9.24-8.425 13.562-8.425 4.17 0 6.627 2.16 6.627 5.906 0 6.264-3.98 7.903-14.278 14.417C111.93 45.604 110.6 54.802 110.6 64.095v1.39h50.34z"/>
</svg>
