<svg width="50" height="50" viewBox="0 0 28 28" xmlns="http://www.w3.org/2000/svg">
    <g fill="none" fill-rule="evenodd">
        <path d="M4 21h2.113c.477 0 .84.036 1.09.11.336.098.624.274.863.527.24.252.422.562.547.927.125.366.188.818.188 1.354 0 .471-.059.878-.176 1.219-.143.416-.348.754-.613 1.011-.2.196-.472.348-.813.457-.255.081-.596.122-1.023.122H4V21zm1.156.969v3.793h.864c.322 0 .556-.019.699-.055.187-.047.343-.126.467-.238.123-.112.224-.296.302-.553.078-.256.117-.606.117-1.049 0-.443-.039-.782-.117-1.02a1.31 1.31 0 0 0-.328-.554 1.1 1.1 0 0 0-.535-.27c-.161-.036-.478-.054-.95-.054h-.519zm5.038 1.875l-.996-.18c.112-.401.304-.698.578-.89.273-.193.68-.29 1.219-.29.49 0 .854.058 1.093.174.24.116.408.263.506.442.098.178.147.505.147.982l-.012 1.281c0 .365.017.634.053.807.035.173.1.359.197.557h-1.086a4.037 4.037 0 0 1-.106-.325 1.973 1.973 0 0 0-.039-.129 1.979 1.979 0 0 1-.601.41 1.723 1.723 0 0 1-.684.137c-.427 0-.763-.116-1.01-.347a1.156 1.156 0 0 1-.369-.88c0-.234.056-.443.168-.626.112-.184.27-.324.471-.422.202-.098.493-.183.873-.256.513-.096.869-.186 1.066-.27v-.109c0-.21-.052-.361-.156-.451-.104-.09-.3-.135-.59-.135-.195 0-.347.039-.457.115-.109.077-.198.212-.265.405zm1.468.89c-.14.047-.363.103-.667.168-.305.065-.504.13-.598.192a.458.458 0 0 0-.215.386c0 .154.057.287.172.399a.6.6 0 0 0 .437.168.95.95 0 0 0 .567-.195.688.688 0 0 0 .262-.364c.028-.093.043-.272.043-.535v-.219zm3.663-2.156v.875h-.75v1.672c0 .339.007.536.021.592a.241.241 0 0 0 .098.138.31.31 0 0 0 .186.055c.101 0 .248-.035.441-.105l.094.851c-.255.11-.544.164-.867.164-.198 0-.377-.033-.536-.1a.781.781 0 0 1-.35-.257 1.018 1.018 0 0 1-.153-.428c-.024-.127-.036-.385-.036-.773v-1.809h-.503v-.875h.503v-.824l1.102-.64v1.464h.75zm2.764 2.828l1.094.184c-.14.4-.363.706-.666.916-.304.21-.683.314-1.139.314-.721 0-1.255-.235-1.601-.707-.274-.377-.41-.854-.41-1.43 0-.687.18-1.225.538-1.615.36-.389.814-.584 1.364-.584.617 0 1.104.204 1.46.612.357.407.528 1.032.512 1.873h-2.75c.008.325.097.579.266.76a.83.83 0 0 0 .633.271.672.672 0 0 0 .433-.14c.118-.094.206-.245.266-.454zm.063-1.11c-.008-.317-.09-.558-.247-.724a.755.755 0 0 0-.57-.248.762.762 0 0 0-.594.262c-.156.174-.233.411-.23.71h1.64zm5.357 2.43h-1.097V24.61c0-.448-.024-.737-.07-.869a.61.61 0 0 0-.23-.306.653.653 0 0 0-.38-.11.88.88 0 0 0-.512.156.787.787 0 0 0-.31.415c-.056.171-.084.49-.084.953v1.879h-1.098v-4.149h1.02v.61c.362-.47.817-.704 1.367-.704.242 0 .463.044.664.131.2.087.352.199.455.334.103.136.174.29.215.461.04.172.06.418.06.738v2.579zM23 8H9V6h14v2zm0 4H9v-2h14v2zm0 4H9v-2h14v2zM7 16H5v-2h2v2zM7 6v2H5V6h2zm0 6H5v-2h2v2z" fill="#1FA677"/>
    </g>
</svg>