<svg width="50" height="50" viewBox="0 0 28 28" xmlns="http://www.w3.org/2000/svg">
    <g fill="none" fill-rule="evenodd">
        <path d="M4 26.727V21h1.125l2.344 3.824V21h1.074v5.727h-1.16l-2.309-3.735v3.735H4zm7.76-1.32l1.094.183c-.14.4-.363.706-.666.916-.303.21-.683.314-1.139.314-.721 0-1.255-.235-1.601-.707-.274-.377-.41-.854-.41-1.43 0-.687.18-1.225.539-1.615.359-.389.813-.584 1.363-.584.617 0 1.104.204 1.46.612.358.407.528 1.032.512 1.873h-2.75c.008.325.097.579.266.76a.83.83 0 0 0 .633.271.672.672 0 0 0 .434-.14c.117-.094.205-.245.265-.454zm.063-1.11c-.008-.318-.09-.56-.246-.725a.755.755 0 0 0-.57-.248.762.762 0 0 0-.595.262c-.156.174-.233.411-.23.71h1.64zm2.357 2.43l-1.312-4.149h1.066l.778 2.719.715-2.719h1.058l.692 2.719.793-2.719h1.082l-1.332 4.149h-1.055l-.715-2.668-.703 2.668H14.18zm4.663-1.184l1.102-.168a.807.807 0 0 0 .285.486c.143.111.343.166.601.166.284 0 .498-.052.64-.156a.349.349 0 0 0 .145-.293.288.288 0 0 0-.078-.207c-.054-.052-.177-.1-.367-.144-.885-.196-1.447-.374-1.683-.536a1.069 1.069 0 0 1-.493-.933c0-.36.142-.662.426-.906.284-.245.724-.368 1.32-.368.568 0 .99.093 1.266.278.276.185.466.458.57.82l-1.035.191a.64.64 0 0 0-.252-.37c-.123-.087-.3-.13-.53-.13-.288 0-.495.04-.62.122a.26.26 0 0 0-.125.222c0 .078.036.145.11.2.098.072.44.175 1.025.308.584.133.992.296 1.224.488.23.196.344.468.344.817 0 .38-.159.707-.477.98-.317.274-.787.41-1.41.41-.565 0-1.012-.114-1.342-.343-.329-.23-.544-.54-.646-.934zM14.18 9.36L17.187 1 11.54 9.36h-.018l-.023.061L10 11.64h4.82L11.813 20l5.647-8.36h.018l.023-.061L19 9.36h-4.82z" fill="#1FA677"/>
    </g>
</svg>