<svg xmlns="http://www.w3.org/2000/svg" viewBox="0 0 512 512">
    <g fill="#e4eaf6">
        <path d="M25.6 68.267c-14.14 0-25.6 11.46-25.6 25.6v8.533h34.133V68.267H25.6zM512 93.867c0-14.14-11.46-25.6-25.6-25.6h-8.533V102.4H512v-8.533zM34.133 102.4h34.133v34.133H34.133zM68.267 68.267H102.4V102.4H68.267zM102.4 102.4h34.133v34.133H102.4zM136.533 68.267h34.133V102.4h-34.133zM170.667 102.4H204.8v34.133h-34.133zM204.8 68.267h34.133V102.4H204.8zM238.933 102.4h34.133v34.133h-34.133zM273.067 68.267H307.2V102.4h-34.133zM307.2 102.4h34.133v34.133H307.2zM341.333 68.267h34.133V102.4h-34.133zM375.467 102.4H409.6v34.133h-34.133zM409.6 68.267h34.133V102.4H409.6zM443.733 102.4h34.133v34.133h-34.133zM0 204.8h34.133v34.133H0zM34.133 238.933h34.133v34.133H34.133zM68.267 204.8H102.4v34.133H68.267zM102.4 256l9.998-9.998a34.034 34.034 0 0 1 10.304-7.07H102.4V256zM170.667 204.8h-34.133v31.205c4.72 0 9.438.982 13.83 2.928h20.303V204.8zM204.8 238.933h-34.133V256l17.066 17.067H204.8zM216.368 204.8H204.8v34.133h34.133v-25.6c-8.652 0-16.548-3.226-22.565-8.533z"/>
        <path d="M238.933 238.933v34.134h25.6l8.534-8.534v-25.6zM273.067 204.8v34.133h25.6l8.533-8.533v-25.6zM443.733 230.4v-25.6h-25.6zM477.867 204.8H512v34.133h-34.133zM477.867 264.533v-25.6h-25.6zM0 273.067h34.133V307.2H0zM34.133 307.2v17.067L51.2 307.2zM68.267 290.133l17.066-17.066H68.267zM204.8 273.067v17.066l17.067 17.067h8.533l8.533-8.533v-25.6zM0 136.533h34.133v34.133H0zM34.133 170.667h34.133V204.8H34.133zM68.267 136.533H102.4v34.133H68.267zM102.4 170.667h34.133V204.8H102.4zM136.533 136.533h34.133v34.133h-34.133zM204.8 179.2v-8.533h-34.133V204.8H204.8zM205.875 170.667c3.79-14.722 17.153-25.6 33.058-25.6v-8.533H204.8v34.133h1.075zM261.5 204.8h11.567v-25.6c0 10.198-4.478 19.345-11.568 25.6zM273.067 170.667h-1.075a34.193 34.193 0 0 1 1.075 8.533v-8.533zM273.067 136.533H307.2v34.133h-34.133zM307.2 170.667V204.8h25.6l8.533-8.533v-25.6zM341.333 136.533h34.133v34.133h-34.133zM375.467 170.667v5.605c8.735 0 17.47 3.332 24.135 9.998l9.998 9.997v-25.6h-34.133zM409.6 136.533h34.133v34.133H409.6zM477.867 136.533H512v34.133h-34.133zM443.733 170.667h34.133V204.8h-34.133z"/>
    </g>
    <path d="M216.368 204.8c6.016 5.307 13.91 8.533 22.565 8.533 8.654 0 16.548-3.227 22.565-8.533 7.09-6.255 11.568-15.402 11.568-25.6 0-2.946-.373-5.806-1.075-8.533-3.788-14.722-17.152-25.6-33.057-25.6s-29.268 10.878-33.058 25.6a34.193 34.193 0 0 0-1.075 8.533c0 10.198 4.478 19.345 11.568 25.6z" fill="#ffdc69"/>
    <path d="M443.733 230.4l-25.6-25.6-8.533-8.533-9.998-9.998c-6.665-6.667-15.4-10-24.135-10-8.735 0-17.47 3.333-24.135 10l-9.998 9.997-8.534 8.533-25.6 25.6-8.533 8.533-25.6 25.6-8.533 8.533-25.6 25.6-8.534 8.534-4.267 4.267L358.4 443.733h128c14.14 0 25.6-11.46 25.6-25.6V298.667l-34.133-34.133-25.6-25.6-8.534-8.534z" fill="#b4ebbe"/>
    <path d="M226.133 311.467l-4.267-4.267-17.066-17.067-17.067-17.067L170.667 256l-9.998-9.998a34.15 34.15 0 0 0-24.135-9.997c-4.72 0-9.44.982-13.832 2.928a33.998 33.998 0 0 0-10.304 7.07l-10 9.997-17.067 17.067-17.067 17.067L51.2 307.2l-17.067 17.067L0 358.4v59.733c0 14.14 11.46 25.6 25.6 25.6H358.4L226.133 311.467z" fill="#a0d778"/>
</svg>
