<!-- width="346.667" height="173.333" -->
<svg version="1" xmlns="http://www.w3.org/2000/svg" viewBox="0 0 260.000000 130.000000">
    <path d="M187 17.1c-6.7 1.1-18 6.5-23.7 11.4-10 8.5-16.3 22.7-16.3 36.4 0 23.3 16.2 43.3 38.8 48 24.8 5.2 50.2-10.7 56.8-35.4 2.9-10.9 1.1-25.7-4.4-35.9C231.7 29.5 217 19.2 203 17c-7.4-1.1-8.4-1.1-16 .1zm6.3 24.3c8.9 5.1 21.5 12.4 28 16.2 6.4 3.7 11.7 7 11.7 7.3-.1.5-12.4 7.7-51.2 29.9l-5.8 3.4v-9.9c0-5.4-.3-20.3-.7-33.1-.5-18-.3-23.2.6-23.2.7 0 8.5 4.2 17.4 9.4z"/>
    <path d="M184 65.1c0 10.5.4 18.9.9 18.7 2.3-.8 32.1-18.4 32.1-18.9S185.6 46 184.5 46c-.3 0-.5 8.6-.5 19.1zM54 65.1c0 10.5.4 18.9.8 18.7C57.1 82.9 86.9 65.4 87 65c0-.6-31.5-19-32.4-19-.3 0-.6 8.6-.6 19.1z"/>
</svg>
